PathFileType	3	(X/Y/Z)	results
DataRate	CameraRate	NumFrames	NumMarkers	Units	OrigDataRate	OrigDataStartFrame	OrigNumFrames
30.0	30.0	4	85	mm	30.0	112	179
Frame#	Time	head			nose			neck			shoulder_r			elbow_r			wrist_r			shoulder_l			elbow_l			wrist_l			hip_r			knee_r			ankle_r			hip_l			knee_l			ankle_l			heel_r			heel_l			mtoe_r			ltoe_r			mtoe_l			ltoe_l			asis_l			asis_r			psi_r			psi_l			mhnd_r			lhnd_r			mhnd_l			lhnd_l			l_lat_knee			r_med_wrist			l_lat_ankle			r_med_ankle			r_lat_knee			xiphoid			l_med_ankle			r_med_knee			l_med_elbow			navel			r_lat_elbow			r_lat_wrist			l_med_wrist			l_lat_elbow			l_med_knee			r_med_elbow			r_lat_ankle			l_lat_wrist			chin			T10			r_eye			l_eye			l_ear			r_ear			spinal_cord_8			spinal_cord_12			spinal_cord_27			spinal_cord_33			up_arm_r_0			up_arm_r_5			up_arm_l_0			up_arm_l_5			front_torso_11			front_torso_7			front_torso_4			front_torso_1			front_torso_10			thigh_r_2			thigh_r_3			thigh_l_1			thigh_l_5			shank_l_0			shank_l_4			shank_r_1			shank_r_2			foot_r_1			foot_r_3			foot_r_5			foot_r_6			foot_r_7			foot_l_1			foot_l_7			foot_l_0			foot_l_4			foot_l_5			foot_l_6			
		X1	Y1	Z1	X2	Y2	Z2	X3	Y3	Z3	X4	Y4	Z4	X5	Y5	Z5	X6	Y6	Z6	X7	Y7	Z7	X8	Y8	Z8	X9	Y9	Z9	X10	Y10	Z10	X11	Y11	Z11	X12	Y12	Z12	X13	Y13	Z13	X14	Y14	Z14	X15	Y15	Z15	X16	Y16	Z16	X17	Y17	Z17	X18	Y18	Z18	X19	Y19	Z19	X20	Y20	Z20	X21	Y21	Z21	X22	Y22	Z22	X23	Y23	Z23	X24	Y24	Z24	X25	Y25	Z25	X26	Y26	Z26	X27	Y27	Z27	X28	Y28	Z28	X29	Y29	Z29	X30	Y30	Z30	X31	Y31	Z31	X32	Y32	Z32	X33	Y33	Z33	X34	Y34	Z34	X35	Y35	Z35	X36	Y36	Z36	X37	Y37	Z37	X38	Y38	Z38	X39	Y39	Z39	X40	Y40	Z40	X41	Y41	Z41	X42	Y42	Z42	X43	Y43	Z43	X44	Y44	Z44	X45	Y45	Z45	X46	Y46	Z46	X47	Y47	Z47	X48	Y48	Z48	X49	Y49	Z49	X50	Y50	Z50	X51	Y51	Z51	X52	Y52	Z52	X53	Y53	Z53	X54	Y54	Z54	X55	Y55	Z55	X56	Y56	Z56	X57	Y57	Z57	X58	Y58	Z58	X59	Y59	Z59	X60	Y60	Z60	X61	Y61	Z61	X62	Y62	Z62	X63	Y63	Z63	X64	Y64	Z64	X65	Y65	Z65	X66	Y66	Z66	X67	Y67	Z67	X68	Y68	Z68	X69	Y69	Z69	X70	Y70	Z70	X71	Y71	Z71	X72	Y72	Z72	X73	Y73	Z73	X74	Y74	Z74	X75	Y75	Z75	X76	Y76	Z76	X77	Y77	Z77	X78	Y78	Z78	X79	Y79	Z79	X80	Y80	Z80	X81	Y81	Z81	X82	Y82	Z82	X83	Y83	Z83	X84	Y84	Z84	X85	Y85	Z85	
112	3.7333333333333334	-57.05471885643831	1562.3523664985012	-590.2134529005087	15.490084890007056	1374.8088811131581	-495.47296462042584	-162.2321561181569	1227.9478779867864	-487.2095512026138	-173.73543978841738	1290.7344321369033	-352.4980447442304	-283.1938689165734	1103.7513594866887	-225.6884920561158	-91.97657654873557	1070.145362950968	-302.7143634641269	-112.41325225786316	1184.850505911289	-606.1393066582087	-7.0808277189325155	983.754223936811	-691.9435384082158	88.30661674926287	1111.3076953746713	-557.1251919489297	-322.2684280574921	799.7556680960322	-370.9990383961876	-13.271353084301275	559.512457185769	-393.582570406777	-319.40170765846466	343.8891431553335	-372.19230158677425	-329.79408742054306	800.1272204399545	-533.2614714332789	-413.0696883511141	422.8805612940122	-511.29355231407783	-670.5347283561701	152.0234178769696	-451.4989803471759	-378.44322020147837	318.79589486584536	-373.30792520394147	-729.2148386068355	106.14956902809392	-443.8284066714061	-232.99156284603163	182.54135830230297	-366.3117936906717	-273.1223358351128	220.99992880817413	-310.17013219595555	-528.4707444172385	44.747142465986734	-441.89747121287564	-589.9717487686671	28.892165156748305	-506.7966809753006	-286.88950021664283	845.4526289197128	-571.276632771231	-279.10721450010345	842.9416674086615	-333.5446642948569	-394.19359071445024	879.1410169619293	-408.19771453943025	-393.1294579079643	878.1810683409951	-489.3597448517527	-34.448637314263934	1029.2325273586987	-322.6734181936896	-10.701145594555497	1076.1409990396094	-332.9054354107389	142.14571605966725	1133.7793730075043	-508.02333973783044	112.34760363044404	1177.996737363927	-504.46742793715714	-420.548107559214	418.67128161985113	-558.9979534081759	-99.53164244429676	1048.3803621027005	-290.0745856738194	-695.1830697337291	144.61711894348213	-498.5620781246974	-323.49841949363986	330.4186401888627	-406.4130185340126	-18.370364254551685	559.4990717415717	-352.12517396607586	-148.3037224755179	1048.9502484084699	-439.9929398418204	-661.985945475741	134.5202823631933	-423.379916595724	-21.42529577035035	569.631249797033	-433.26378938199827	-31.709499279717736	972.3041970830342	-672.5538838572601	-221.26229283791275	854.3696086980302	-411.19766199367115	-262.2589352250828	1119.0858346541916	-197.40630214321493	-99.94365388578927	1094.9832862345236	-315.33873374516145	108.36643130481619	1093.5119054318118	-568.2495440094234	3.1581828875768823	1011.0314312229194	-714.6415527660332	-390.08102185682935	422.05146344241166	-469.21936257396635	-298.0283904786268	1098.687983706632	-257.40948487015953	-326.633232815992	328.0670849810371	-326.4898089066769	65.21710574381947	1125.2648109964653	-564.4009700326576	-24.684105193717638	1306.6342495716658	-475.12495100762305	-310.16961359081915	1127.0920008294686	-492.14078125125104	16.57936271248628	1418.0579573126715	-475.41345408178	31.48439599903255	1389.9512634257906	-540.1825429419554	-58.83951777718408	1382.0121213415428	-618.5470494346288	-99.20121009190656	1449.2330591223995	-457.6120386316091	-180.5092039249804	1296.0463289814231	-507.42834986217235	-270.32925342185433	1212.8549701922498	-506.8458170959258	-358.48185141754385	993.4645501754277	-458.08040921137274	-302.8645119651997	1114.2064268277632	-487.6573256768297	-189.08685245294612	1176.7689897720948	-288.3175040339596	-265.5586895268089	1203.667081566525	-263.42338554938067	-81.9302225551798	1158.2096251594746	-644.7174109435871	-67.45286685589382	1019.2000957984537	-657.844134197691	-253.01073677738611	902.7165642523238	-380.92670742025115	-156.64472604112527	963.5149107258802	-420.18002482392785	-113.41416801492771	1071.839771445734	-503.0702271576496	-214.02653912751563	904.5392253275683	-491.30224480619813	-117.69911499256452	1136.1053085773258	-374.4669812791551	-161.32013790171754	675.697883322227	-399.99629014416655	-133.42359603205705	646.4042720489055	-309.57478908424457	-384.05442173096395	534.4963656670409	-471.03689803445945	-348.14445721384584	690.6432625189825	-627.1202590509146	-617.2107985014069	211.51056936635766	-531.513038707774	-498.2759300786343	314.5745469497233	-443.14247143047464	-138.76332368735976	464.49957727070637	-328.2592579030137	-174.7489548864336	445.5320334535115	-421.42410723815925	-248.406959481838	190.5783718665545	-345.8478597240137	-257.64166829957827	203.8986559136314	-325.433909503629	-282.25304101930504	236.37894583793945	-381.275230667666	-285.91176360534877	252.25190605648174	-350.031252584308	-300.6274211245721	253.44943629386574	-321.8667707768111	-559.9692598400975	28.804498524687695	-481.21339976619555	-647.1313009449891	79.09549843435357	-502.35151668178315	-568.5830235714204	27.20706954213961	-494.125978460648	-549.9661588724894	30.9207061117458	-465.32212541890476	-598.2967935762863	58.8109192951275	-473.9279867054842	-618.1027368139221	85.01225982790086	-449.2626365584201	
113	3.7666666666666666	74.33763300495673	1578.4705565264812	-559.5331145205067	131.64183080079087	1393.2473692023643	-450.81482087535994	-16.925852871391005	1244.3599940856752	-489.6543685707367	-38.704605200767226	1308.9036960841581	-359.742087819652	-126.52858067195626	1106.1375604790603	-240.58956622615037	66.39594958362623	1069.841178316202	-311.92748768003105	49.386728077803845	1212.70414343604	-605.9150797642112	210.1934719149779	1041.6366332459404	-667.3487721753212	210.83670155804222	1150.6865803147984	-489.4377425005322	-169.0283257125415	817.4603303131832	-366.89010799413586	143.75038147262805	597.6993070354882	-410.82941562711966	-41.13543813700962	275.2705994726116	-360.59284138117516	-191.87333908047077	808.7533909725465	-527.4770481438475	-350.7578498644621	457.819011584244	-508.14891129476734	-623.115493000178	199.22317973210764	-461.4933674032857	-84.25944914381859	228.25409041826916	-356.25352631348443	-685.9464758308159	167.79584905967926	-453.729961318551	103.88714275954158	162.34882641225656	-361.5247073188401	56.195309301458785	183.5737457256933	-302.22530965758114	-519.0972977329532	40.39435528283547	-452.18432133514005	-585.1316670200971	43.406383651445545	-514.4422608083826	-150.64713869554558	849.419754392948	-572.0527818621653	-120.49605026884619	860.3894924390183	-336.3539603797032	-240.2770063747837	898.2712229225592	-402.2769598485416	-246.9575311967637	892.515563797369	-482.9712720430237	124.15989759385643	1028.1924311540604	-329.5455450235136	148.4594727925719	1074.7412620213393	-340.1181154204361	232.00873279700775	1168.872413223261	-418.4755175115147	196.55159283442254	1208.44466140065	-424.1830321692468	-358.3668053065947	453.98604092394737	-556.2406532796123	58.37989711701075	1048.3860454946414	-299.04422552864406	-648.8588142887072	196.4451317856305	-508.47094745607313	-41.76672796943373	259.7704693577199	-394.18811494728976	147.23351593365643	592.9532527216237	-369.806897905185	-3.059913112442386	1068.6965248994347	-431.2279845062944	-615.2179935004547	179.40628986630298	-434.75306887265987	134.92644628704033	598.4642536404748	-450.51398220335875	181.80271395421792	1024.718614724991	-662.7250514717106	-73.71377958347824	874.0031435905655	-397.81743537861905	-106.61313923416918	1122.109488897162	-211.92647953709357	58.9143607796842	1094.4586922476649	-325.26072870125387	236.52804642880378	1137.3753717401205	-491.80502648695483	224.6374562154087	1073.6720143291975	-678.7149020222231	-327.51567790581703	450.1818092834991	-466.6103008745635	-141.45809555573774	1101.144214747914	-272.27707595976455	-37.60108882699037	259.9812720718133	-314.2776693450584	191.42874249013826	1163.3758864226695	-505.0318496244939	89.9871295846062	1324.1149644060624	-438.1111180152146	-161.44059776252823	1139.2311650794138	-501.7015313596298	127.70430412066469	1436.5832744139204	-431.30717405483756	155.68253586763237	1408.641282296635	-491.66978462737416	82.64758394679974	1398.0432196577847	-586.0944218835068	9.933109850170915	1464.7683769742464	-436.735267417641	-34.9240447717934	1310.697945964519	-515.2588711527858	-122.46975905882391	1225.1509936660066	-517.7588062806037	-209.44598456326491	1006.3626047858703	-464.3932834879907	-154.26290050859708	1126.8239550064775	-495.866661923319	-41.407175968546895	1191.0462967914889	-301.0457568160931	-119.61337880396317	1208.9963939669583	-273.6094634765369	96.81457340857139	1196.8355619319645	-630.9352589336319	136.47838699082183	1064.92260623144	-657.9779650680022	-109.14702852949866	923.0217118379834	-373.25349166358524	-11.125622166273496	984.2777820241637	-407.358735340398	36.74698794761982	1089.0631209289245	-492.22444214623926	-60.57043897800049	919.8771265473854	-479.72543887941947	19.558286031046812	1160.1555407529104	-368.3792514689623	-5.901190903584847	699.5953088104474	-407.29928110083205	33.067589368173664	676.6338727506496	-319.1710382847467	-298.7647945377646	559.068063497985	-467.4163587066223	-232.44387011590177	706.2532143452615	-622.2435555687973	-567.5054918999775	260.6775370071703	-538.4043677371452	-441.29764068465846	350.4126991080391	-445.68855173307225	74.99442227315365	462.0996167002518	-333.83487525180783	43.384375717219505	425.6155031247083	-423.3007175394198	88.20099489287296	164.296997167309	-339.81871667853295	76.01059053483823	173.561117115632	-318.72347311951484	36.06909844137533	191.21753858986992	-372.31330461890894	28.781891279156493	205.47801582830004	-340.9276600621768	17.101372940632256	201.74891986461785	-311.5868689171788	-555.9044258652476	34.28038019457966	-489.5998426460337	-621.0651995355706	110.56859544036503	-512.1255581179012	-565.1088659984214	35.07173314949433	-502.17503393083473	-545.0845000515288	33.655686787696595	-474.12043931665545	-581.0740425441079	76.1348150290101	-483.5040199660171	-589.4304872187216	108.93525500983067	-460.23459580922315	
114	3.8	204.90509296191638	1592.2131890547096	-528.1622549169543	253.5483884904059	1409.7557100054726	-410.8840995777502	130.98077729194165	1260.8792557191477	-492.4146408090384	109.62224169836121	1316.1563926340123	-369.294186739647	18.551249765657847	1115.3224794679022	-249.30963119744573	211.73193811857718	1074.2126167691615	-317.262567897727	201.4494688934671	1232.7283270664402	-602.6049238966644	389.5737107979415	1084.108989038597	-640.2687320080298	316.3906026510561	1166.8734637708055	-463.24072974764994	-10.871419763947046	832.9691412373401	-366.4288424975535	282.1827936417458	594.3820678269822	-412.38239729458314	231.61832855747554	225.9613194944826	-363.63674913779334	-52.74849830656085	821.533310412499	-522.9580820701996	-250.42385691780245	490.80809467169485	-506.63108636239775	-548.5269548650912	261.9759719902781	-461.936204945207	210.1996880698774	165.84278080898633	-360.0995983311998	-611.1314618389156	248.13587552834457	-451.43253851783714	408.4511818855052	173.8014672629058	-380.18525807996787	361.3105162291973	163.42973849391922	-317.642379786222	-507.8272559674475	65.5386147424237	-459.0914714856607	-573.1246861290754	93.92824594348461	-515.4469124301979	-15.330272910306773	859.1988756930879	-573.1729239880369	42.7036733548019	874.3315985364386	-342.98513214281235	-82.24807903183529	916.1108800416225	-395.6149337904316	-98.58891361409061	908.7652863666709	-474.78783586633693	268.91348806620834	1031.1882284712517	-333.41373292196187	294.2733241549227	1077.0914609112444	-344.31392649180117	309.4875853307741	1176.2464607945994	-387.88084599363907	274.05413061560256	1213.8277469138568	-401.58721474243055	-257.06934395348355	487.4100758125333	-554.9260046095773	203.11091732030405	1053.113610391926	-304.1832638073397	-576.934644540819	265.9283550338581	-507.26512512358534	241.42971116392914	211.02642680036925	-396.04015510041205	290.34187781051656	588.6849910602559	-371.8409927273517	145.22768640850182	1087.9138059207291	-426.50910383796884	-541.587610495593	239.30537167555727	-437.27829406654075	274.61748471049043	591.1088693824626	-452.10516173097216	362.90571993685126	1065.2251485889012	-647.0401509664082	76.75311011509322	893.16226255297	-389.1351139102854	38.32713436116511	1131.347947276289	-220.57987983084297	204.92857866593454	1098.767640418394	-331.06606720300556	342.6160366072512	1155.7333308722727	-457.67641835524523	403.31017710418257	1118.3690165476194	-641.5506211669522	-229.25213811559843	480.7947252576346	-464.4699130019085	3.90158936423024	1110.1987953508753	-281.10676158000496	234.70864942479702	213.8706974369735	-316.3544364474374	302.3143301935011	1180.3343610637617	-483.2788519012709	213.6622718264024	1338.763067455497	-404.18111562094566	-10.634108145976782	1152.2806912460612	-507.6885508267934	244.72905083489255	1452.849010689292	-392.4656359928618	282.75456992694257	1426.2741090904308	-447.7378318339187	225.38473555835543	1412.3821547570592	-552.0362065290594	127.96381821147062	1475.5661262160368	-415.7836872907833	113.0418398160542	1325.788445697109	-521.4876678664117	27.431089888371236	1238.3437610295	-525.0945270868084	-57.90462306408267	1019.9308973876417	-467.6947097930793	-3.5275740307662633	1140.262686925221	-501.01257554107883	105.13670648648173	1198.8515510762375	-309.6084778049766	26.83352029966864	1217.8139570751298	-283.1470996382276	255.37252600916548	1224.1150082480058	-614.6604789469197	314.24942258192414	1101.5498815786598	-649.5439237179552	39.143425147168905	942.3088487622271	-368.35418141623376	137.58586325078522	1004.3139009034603	-399.78871299397764	187.737731937445	1106.7888511617205	-486.1462076134987	93.2263860924164	936.1478197639194	-472.0022594018521	162.76664578818188	1182.171380769093	-366.22484183401224	142.53499820939646	703.0482820333038	-407.9326729745063	184.10491080817016	681.8688076080524	-320.54987836797	-188.484348530154	585.7770120396958	-464.9013928503988	-101.98018754999991	723.5641129104231	-618.4108046174442	-490.30081909474006	322.6823534723784	-537.4932336282664	-349.5061915204283	389.7332362518233	-446.6191695193775	261.83173510309837	443.67786560294115	-335.46104108950027	258.7861158344244	396.58895300209673	-425.5042586921252	394.8636930861301	165.33765527850878	-358.627320593219	381.9660225423163	164.9021566575309	-335.98003348994837	334.19997669785306	178.31338960361234	-384.1203050441483	324.9889554896762	181.95097772794705	-350.30539229142016	317.7245423470473	168.1018543495187	-322.61689695997217	-547.5221770491703	74.18207883534966	-492.88008460432815	-579.6346145349314	169.80994863009272	-512.8131713062077	-556.854205752608	78.46452256449344	-504.6298637298564	-536.3660760993126	69.43207213757455	-478.38692028909924	-553.6741099816386	122.5783258196074	-486.36706900096226	-546.3032884100372	156.12791850153295	-463.8446146195991	
115	3.8333333333333335	340.8796832395608	1602.6425472108235	-497.2561770557133	382.45808835664207	1416.8080838793653	-382.5920761048488	278.2027816771088	1272.0109031040993	-494.9196865577858	249.57821673120102	1317.5656278416807	-368.31406772094107	145.30237874260771	1125.525186399841	-244.73616403068309	337.78690176755873	1083.4793385983598	-314.0777521890264	340.14694433005326	1242.4499943867474	-601.5125501294366	519.8145565343266	1082.4726065669668	-633.5091902747961	439.527197031362	1165.717121640145	-459.8171357808981	151.36448699884403	837.3839409921607	-370.9393974374235	409.5695311112186	562.139483556531	-402.42289117170196	461.3584324673705	191.9327896757815	-371.8997090379434	102.30644016699422	832.0176113721061	-525.6985048352191	-103.67125707828403	504.75958054567013	-511.28167250363634	-441.54734060692937	342.53496398457395	-458.83974497899493	454.6041984196735	129.86601147432918	-371.1480766952281	-501.3535330840813	346.1819501036896	-445.07116116968047	647.4023772246994	172.26375753134172	-399.46278305947106	606.4515168196107	148.78380933984505	-336.11338837845545	-470.73837931652264	139.0974544118597	-460.9110429656738	-525.5704158373259	190.41740850876855	-511.9538813660861	136.34311738784223	872.9198456517043	-575.7870322965572	204.98327614347414	879.0352311213992	-348.1151447019438	76.66946494413921	919.8537660111693	-392.8114294916517	56.72738828474999	915.708586253702	-471.3891623915792	394.5661792582115	1040.1543205483918	-330.8331761786546	420.1876822721652	1085.9448506708734	-341.59459751389187	427.72219074920616	1173.6709992234314	-384.9038895635665	396.03223554339866	1213.9661026355952	-399.99689137779774	-113.37797867010713	505.2241671671109	-558.7676480421354	329.0924844928924	1062.3598489321985	-301.0803474598281	-470.73049728417794	355.2190053145406	-502.0229318792723	474.31052808507945	181.75650859903314	-405.03551277000804	418.26763740134436	556.1107381654524	-361.9071380103364	295.7763288174189	1101.2200136036654	-424.3137126508444	-438.4178465282027	317.4437220316528	-435.80153689156475	406.46408944366794	559.712528629113	-442.79701321974363	492.4085951703535	1065.7298021538709	-642.5769939508721	232.07430527242568	905.4858251512773	-383.7683549269489	165.5397986896564	1141.1475543756355	-216.10596500386976	331.0779333184194	1108.1683067256574	-327.6871634358366	464.4525140586287	1152.6364603157972	-452.7134480859524	535.8799266525012	1115.7181656461557	-632.6607117568293	-81.24405658150458	494.52548601210106	-470.15154575099706	130.8563821691301	1120.4081000949911	-276.6273979378477	468.38017834891673	178.92233770822673	-325.2866900140262	427.91758117694724	1180.6233769324701	-480.4055770659305	344.54595638380715	1344.4337893766092	-383.2396386044853	140.27189197193653	1158.8855400633752	-511.0267723427517	370.1670207973	1458.7808845710565	-363.585057883067	414.98983553511994	1435.7710624495476	-415.2439825255406	370.0725849567577	1424.7053094140706	-525.7990591388107	256.0007335910997	1478.99430173321	-398.960120228877	259.1384863305792	1335.6210128626271	-526.0734327704963	176.24528035160913	1245.5942919999684	-529.6355594496791	95.86412747309475	1026.2045289820826	-468.90579673343797	147.55010706972408	1147.2529677807681	-503.8703243353865	237.44811035868764	1202.3326021620012	-305.7270080187658	159.98365510917927	1226.4417785701241	-281.0455954057046	394.0129774398065	1230.521908948025	-610.6445275782756	446.5590370455769	1105.4142233143004	-646.5963364324355	192.51343508353895	953.9820184830871	-365.2001219212334	289.8876271815023	1018.1107763711876	-395.68682412616005	339.25910063112985	1119.8863476951344	-483.31178022460495	249.44183144452137	946.8956510614628	-467.25300084960367	308.9706690367806	1197.412346637694	-366.01069206507265	288.2514000151358	688.2670576915708	-405.02245533391	322.9160257679489	662.7962855051488	-315.7925049288331	-37.39389630772913	598.2527194187636	-469.0096725979639	45.38023397968115	739.0344373941138	-621.8571317635532	-375.54181459730916	393.91130890518775	-534.919663101991	-219.0563440123074	423.69116093877443	-450.05211057685534	432.00989137145757	408.11514783678047	-333.0272758236295	440.33747581750833	366.2514826717637	-425.2905263578406	636.6937822727809	159.80879808493515	-378.22129974951713	625.4423987722514	155.25857760911111	-355.15311732027044	573.290144659365	164.75000787990098	-399.5265011491063	565.6994271656906	163.83098937322427	-365.13086630324227	562.4593234435832	146.59477390553587	-338.60470384805933	-507.1061307394286	162.23238058930875	-491.47619395333606	-504.4073730102038	263.5568469512744	-508.77634688340345	-515.132525038076	169.88233251407695	-502.45520227035377	-497.34655986755587	153.4196809021621	-477.90563521312174	-495.11825900844855	209.45236793254256	-484.4743299241676	-474.65252364641316	237.54189827928357	-462.5814751054207	
